<svg xmlns="http://www.w3.org/2000/svg" width="130" height="71" fill="currentColor" viewBox="0 0 130 71">
  <path d="M53.959 31.372l-2.366 5.256h-.825L39.878 4.316c-.429-1.336-1.008-2.208-1.717-2.62a4.19 4.19 0 00-1.846-.67V0c.682.034 1.533.069 2.542.103a90.457 90.457 0 006.115 0C45.945.07 46.74.034 47.358 0v1.026a4.01 4.01 0 00-1.928.516 1.422 1.422 0 00-.563 1.31c.067.85.248 1.687.537 2.49l7.987 24.287M68.421 31.372l-2.366 5.256h-.82L54.345 4.316c-.446-1.337-1.019-2.21-1.717-2.62a4.204 4.204 0 00-1.851-.67V0c.687.034 1.534.069 2.542.103 1.01.034 1.997.052 2.954.052 1.13 0 2.186 0 3.16-.052C60.41.052 61.23.034 61.835 0v1.026a3.989 3.989 0 00-1.924.516 1.425 1.425 0 00-.566 1.31c.069.85.25 1.687.54 2.49l7.962 24.287M69.374 23.819V5.483a9.387 9.387 0 00-.309-2.816 1.944 1.944 0 00-1.22-1.246 8.734 8.734 0 00-2.644-.386V0c.717.034 1.662.069 2.825.103 1.164.034 2.31.052 3.435.052 1.612 0 3.154-.018 4.625-.052C77.558.07 78.602.052 79.221.052c3.595 0 6.3.758 8.115 2.275a7.275 7.275 0 012.731 5.832 8.934 8.934 0 01-.751 3.56 8.485 8.485 0 01-2.465 3.156 13.312 13.312 0 01-4.59 2.301v.103c2.705.344 4.82.99 6.342 1.941a8.267 8.267 0 013.212 3.337 9.503 9.503 0 01-2.336 11.25c-2.175 1.88-5.198 2.821-9.069 2.821-.751 0-1.885-.026-3.392-.077-1.507-.052-1.37-.077-3.496-.077l-4.148-12.655zm8.571-22.784c-1.577 0-2.605.293-3.083.88-.48.584-.717 1.778-.717 3.568v25.662c0 1.795.245 2.958.743 3.49.498.533 1.533.804 3.109.804 3.355 0 5.796-.785 7.321-2.353 1.526-1.57 2.286-3.803 2.28-6.703 0-2.654-.715-4.705-2.147-6.154-1.431-1.448-3.77-2.173-7.016-2.173h-.889v-.88c2.022 0 3.577-.386 4.676-1.163a5.904 5.904 0 002.259-3.105c.42-1.348.63-2.753.618-4.165 0-2.551-.556-4.473-1.67-5.767-1.114-1.294-2.942-1.941-5.484-1.941zM4.672 51.529v.429c-.286.004-.566.08-.816.219a.606.606 0 00-.236.554c.03.365.113.723.245 1.065l3.37 10.284-.545.541 3.045-9.717.326.523-3.59 11.594h-.348L1.5 53.362a1.94 1.94 0 00-.717-1.108A1.718 1.718 0 000 51.958v-.43l1.074.043h2.589l1.009-.042zm15.197 0v.429c-.34.089-.653.257-.915.49a2.808 2.808 0 00-.803 1.4l-4.11 13.186h-.347L9.086 53.362a2.288 2.288 0 00-.631-1.108 1.24 1.24 0 00-.653-.283v-.43l.98.043h2.717l1.194-.043v.43a4.335 4.335 0 00-1.03.129.55.55 0 00-.43.48c-.013.415.057.829.206 1.216l3.238 10.022-.305.262 2.869-9.017a5.585 5.585 0 00.36-1.86 1.065 1.065 0 00-.49-.936 2.864 2.864 0 00-1.369-.292v-.43l1.288.044H19.181l.688-.06zM23.54 55.492v9.412a1.599 1.599 0 00.382 1.241c.38.253.835.367 1.288.323v.459c-.245 0-.618-.034-1.12-.056-.503-.021-1.001-.03-1.508-.03-.506 0-.996 0-1.503.03-.506.03-.884.039-1.129.056v-.46c.454.045.909-.069 1.288-.322a1.6 1.6 0 00.383-1.24v-6.807a2.422 2.422 0 00-.348-1.442 1.532 1.532 0 00-1.289-.468v-.456c.464.043.915.065 1.349.065.403 0 .806-.025 1.206-.078.34-.047.674-.123 1-.227zm-1.13-5.196a1.408 1.408 0 11-.979.43 1.333 1.333 0 01.98-.43zM33.064 55.428c.358-.009.712.072 1.03.236.277.148.513.362.688.622.167.255.254.554.249.86.004.346-.114.684-.335.952a1.105 1.105 0 01-.902.43 1.211 1.211 0 01-.807-.297 1.028 1.028 0 01-.344-.858 1.09 1.09 0 01.228-.704c.14-.187.313-.346.51-.469a.526.526 0 00-.459-.219 2.147 2.147 0 00-1.575.7 4.861 4.861 0 00-1.057 1.64 4.805 4.805 0 00-.378 1.761v4.608c0 .713.206 1.185.619 1.425.52.264 1.1.387 1.683.357v.46l-1.413-.057c-.61 0-1.254-.03-1.932-.03-.494 0-.983 0-1.469.03-.485.03-.858.039-1.099.056v-.46c.454.046.91-.068 1.288-.321a1.596 1.596 0 00.382-1.241v-6.81a2.422 2.422 0 00-.347-1.443 1.532 1.532 0 00-1.289-.468v-.456c.464.043.915.065 1.349.065.403 0 .806-.025 1.206-.078a6.189 6.189 0 001.057-.227v2.718c.173-.456.402-.889.682-1.288.291-.422.656-.787 1.078-1.078.4-.272.873-.417 1.357-.416zM40.824 55.428a3.865 3.865 0 013.005 1.163c.716.773 1.075 1.978 1.078 3.616h-7.69v-.43h5.586a7.221 7.221 0 00-.176-1.966 3.436 3.436 0 00-.683-1.443 1.521 1.521 0 00-1.206-.546 2.22 2.22 0 00-1.774 1.001c-.515.666-.82 1.718-.923 3.173l.064.086c-.03.22-.051.46-.064.717-.013.258 0 .524 0 .782-.022.873.14 1.74.477 2.546.266.64.697 1.2 1.25 1.62.459.35 1.019.543 1.596.553a3.568 3.568 0 001.808-.477 3.672 3.672 0 001.392-1.717l.429.172c-.174.507-.44.978-.782 1.39a4.223 4.223 0 01-1.37 1.1 4.142 4.142 0 01-1.915.43 4.883 4.883 0 01-2.709-.683 4.663 4.663 0 01-1.718-1.993 6.774 6.774 0 01-.596-2.924 8.078 8.078 0 01.61-3.29 4.853 4.853 0 011.717-2.146 4.53 4.53 0 012.594-.734zM51.864 55.428a3.68 3.68 0 011.794.455 2.328 2.328 0 011.121 1.567l-.283.215a2.426 2.426 0 00-.945-1.327 2.74 2.74 0 00-1.512-.43c-.858 0-1.574.443-2.147 1.327-.572.885-.858 2.248-.858 4.088-.022.986.092 1.97.339 2.924.16.664.507 1.268 1 1.74.45.386 1.027.59 1.62.575a2.23 2.23 0 001.652-.786 3.809 3.809 0 00.89-2.301l.261.304a4.1 4.1 0 01-1.056 2.542 3.194 3.194 0 01-2.379.894 4.265 4.265 0 01-2.357-.653 4.075 4.075 0 01-1.546-1.958 8.785 8.785 0 01-.533-3.28 7.102 7.102 0 01.687-3.294 4.637 4.637 0 014.226-2.62l.026.018zm4.568-5.544v14.673a2.37 2.37 0 00.357 1.447 1.55 1.55 0 001.288.463v.46c-.43-.043-.898-.069-1.348-.069-.404 0-.806.024-1.207.069a4.55 4.55 0 00-1.052.236V52.49a2.422 2.422 0 00-.348-1.443 1.534 1.534 0 00-1.288-.467v-.456c.464.043.914.065 1.348.065.404 0 .807-.025 1.207-.078a6.182 6.182 0 001.043-.227zM67.648 49.905v15.888l-.575.49-.58.49-.584.502-.369-.155c.056-.202.095-.41.116-.618a5.28 5.28 0 00.034-.64v-13.35a2.422 2.422 0 00-.347-1.443 1.533 1.533 0 00-1.289-.468v-.455c.464.043.915.064 1.349.064.403.001.806-.024 1.206-.077.353-.046.7-.122 1.04-.228zm3.388 5.523a3.64 3.64 0 012.959 1.464c.781.979 1.172 2.462 1.172 4.448a7.243 7.243 0 01-.661 3.272 4.62 4.62 0 01-1.773 1.967 4.68 4.68 0 01-2.414.653 3.973 3.973 0 01-2.095-.623 3.744 3.744 0 01-1.512-1.833l.43.236a3.526 3.526 0 003.005 1.717 2.359 2.359 0 002.186-1.314c.485-.858.726-2.237.726-4.075.019-.986-.076-1.972-.284-2.937a3.573 3.573 0 00-.858-1.747 2.043 2.043 0 00-1.495-.576 2.538 2.538 0 00-1.859.902 4.444 4.444 0 00-1.056 2.64l-.262-.304a4.698 4.698 0 011.288-2.868 3.465 3.465 0 012.503-1.023zM82.102 55.428a3.865 3.865 0 013.006 1.163c.718.773 1.078 1.978 1.078 3.616h-7.69l-.022-.43h5.608a7.217 7.217 0 00-.176-1.966 3.434 3.434 0 00-.683-1.443 1.522 1.522 0 00-1.207-.546 2.22 2.22 0 00-1.773 1.001c-.515.666-.82 1.718-.923 3.173l.064.086c-.03.22-.052.46-.064.717-.013.258-.022.524-.022.782-.022.873.14 1.74.477 2.546.266.64.697 1.2 1.25 1.62.46.35 1.019.543 1.597.553a3.568 3.568 0 001.808-.477 3.672 3.672 0 001.39-1.717l.43.172c-.174.507-.439.978-.781 1.39a4.221 4.221 0 01-1.37 1.1 4.142 4.142 0 01-1.915.43 4.884 4.884 0 01-2.684-.718 4.665 4.665 0 01-1.718-1.992 6.777 6.777 0 01-.597-2.924 8.077 8.077 0 01.61-3.29 4.852 4.852 0 011.718-2.147 4.53 4.53 0 012.59-.7zM90.733 67.077c-.945 0-1.627-.236-2.057-.704a2.705 2.705 0 01-.64-1.88 2.465 2.465 0 01.43-1.512c.302-.407.69-.74 1.138-.98.47-.257.962-.475 1.468-.652.516-.18 1.005-.356 1.469-.532.405-.144.789-.34 1.142-.584a.987.987 0 00.43-.83v-1.347a2.895 2.895 0 00-.271-1.392 1.357 1.357 0 00-.726-.64 3.074 3.074 0 00-1.022-.163 4.802 4.802 0 00-1.163.155 1.717 1.717 0 00-.992.627 1.288 1.288 0 011.022 1.318 1.105 1.105 0 01-.348.859 1.289 1.289 0 01-.889.313 1.066 1.066 0 01-.923-.4 1.494 1.494 0 01-.297-.9 1.405 1.405 0 01.284-.916c.21-.248.45-.467.717-.652a4.838 4.838 0 011.288-.597 5.963 5.963 0 011.795-.25 4.93 4.93 0 011.52.207c.388.118.745.322 1.044.597.373.343.633.793.743 1.288.124.59.181 1.192.171 1.795v6.042c-.016.266.035.532.15.773a.562.562 0 00.525.249c.185.004.369-.04.532-.13a2.74 2.74 0 00.43-.325l.236.369a6.706 6.706 0 01-.86.575 2.313 2.313 0 01-1.107.228c-.756 0-1.254-.193-1.503-.588a2.479 2.479 0 01-.37-1.345 3.688 3.688 0 01-1.575 1.542 4.44 4.44 0 01-1.79.382zm.953-.859a2.46 2.46 0 001.289-.382 3.66 3.66 0 001.172-1.288v-4.26a2.186 2.186 0 01-1.01.76c-.454.19-.927.395-1.412.619a3.863 3.863 0 00-1.25.914 2.357 2.357 0 00-.523 1.64 1.998 1.998 0 00.502 1.49 1.716 1.716 0 001.232.499v.008zM108.51 55.492v9.086a2.373 2.373 0 00.361 1.447 1.554 1.554 0 001.288.464v.46a13.804 13.804 0 00-1.348-.065c-.403 0-.806.02-1.207.064a4.558 4.558 0 00-1.052.237v-2.577a3.829 3.829 0 01-1.533 2.01 3.86 3.86 0 01-2.031.6 3.672 3.672 0 01-1.327-.218 2.524 2.524 0 01-.936-.61 2.293 2.293 0 01-.562-1.13 8.064 8.064 0 01-.155-1.717v-5.445a2.42 2.42 0 00-.348-1.442 1.533 1.533 0 00-1.288-.468v-.456c.464.043.915.065 1.349.065.403 0 .806-.025 1.206-.078.358-.044.712-.12 1.056-.227v8.54c-.003.416.025.83.086 1.242.04.343.19.665.43.914.316.26.722.385 1.129.348a2.503 2.503 0 002.108-1.142 4.616 4.616 0 00.829-2.796v-4.5a2.422 2.422 0 00-.348-1.442 1.529 1.529 0 00-1.288-.468v-.456c.464.043.915.065 1.349.065.403 0 .806-.025 1.206-.078a6.025 6.025 0 001.026-.227zM114.771 52.121v3.633h3.221v.43h-3.221v8.411c-.051.507.08 1.015.369 1.434a1.29 1.29 0 001.022.43 1.475 1.475 0 001.134-.533c.403-.529.685-1.14.824-1.79l.43.107a4.924 4.924 0 01-.859 2.147 2.278 2.278 0 01-1.967.859 3.464 3.464 0 01-1.215-.185c-.318-.12-.61-.3-.859-.532a2.706 2.706 0 01-.661-1.198 7.398 7.398 0 01-.185-1.847v-7.3h-2.086v-.429h2.086V52.43c.361 0 .709-.043 1.044-.086.315-.038.625-.113.923-.223zM129.075 55.732v.43a1.285 1.285 0 00-.76.37c-.3.33-.523.723-.653 1.15l-3.564 9.352h-.369l-3.998-9.631a2.15 2.15 0 00-.816-1.03 1.665 1.665 0 00-.666-.185v-.456c.318.043.653.073 1.001.095.348.021.726.034 1.129.034.404 0 .928 0 1.426-.043l1.4-.086v.456a5.444 5.444 0 00-.967.077.616.616 0 00-.532.455c-.041.446.051.894.262 1.288l2.675 6.63-.133.043 2.478-6.475c.275-.726.305-1.233.09-1.525-.215-.292-.713-.463-1.482-.52v-.429c.378 0 .692.026.949.043.258.017.546.022.881.022.335 0 .631 0 .901-.022l.748-.043zm-4.977 11.302l-.739 1.89a3.859 3.859 0 01-.936 1.524c-.235.21-.518.357-.824.43-.281.071-.569.11-.859.115a1.758 1.758 0 01-.747-.15 1.203 1.203 0 01-.73-1.15 1.163 1.163 0 01.305-.86 1.114 1.114 0 01.858-.317c.285-.006.562.087.786.262a.92.92 0 01.309.785c.009.217-.053.431-.176.61a1.24 1.24 0 01-.429.37c.024.012.05.019.077.021h.052a1.54 1.54 0 001.043-.4c.365-.36.642-.802.807-1.288l.773-2.018.43.176z"/>
</svg>
