<svg width="50" height="67" viewBox="0 0 50 67" fill="none" xmlns="http://www.w3.org/2000/svg">
<path d="M24.6646 31.9963C23.1311 31.9963 21.6425 31.6971 20.2404 31.107C18.8869 30.5375 17.6716 29.7224 16.6284 28.6845C15.5853 27.6466 14.766 26.4375 14.1934 25.0909C13.6003 23.696 13.2996 22.215 13.2996 20.6892C13.2996 19.1635 13.6003 17.6825 14.1934 16.2875C14.7658 14.9409 15.5851 13.7319 16.6284 12.694C17.6716 11.6562 18.8869 10.8411 20.2404 10.2714C21.6425 9.68137 23.1311 9.38214 24.6646 9.38214C26.1982 9.38214 27.6868 9.68137 29.0889 10.2714C30.4424 10.8409 31.6577 11.656 32.7008 12.694C33.744 13.7319 34.5633 14.9409 35.1359 16.2875C35.729 17.6825 36.0297 19.1635 36.0297 20.6892C36.0297 22.215 35.729 23.696 35.1359 25.0909C34.5634 26.4375 33.7442 27.6466 32.7008 28.6845C31.6577 29.7223 30.4424 30.5374 29.0889 31.107C27.6868 31.6971 26.1982 31.9963 24.6646 31.9963ZM24.6646 12.6463C23.5725 12.6463 22.514 12.8587 21.5185 13.2777C20.556 13.6827 19.6913 14.2629 18.9484 15.002C18.2055 15.7411 17.6223 16.6014 17.2152 17.559C16.7941 18.5494 16.5806 19.6025 16.5806 20.6891C16.5806 21.7756 16.7941 22.8287 17.2152 23.8192C17.6223 24.7767 18.2055 25.6371 18.9484 26.3762C19.6913 27.1154 20.556 27.6955 21.5185 28.1005C22.514 28.5195 23.5727 28.7318 24.6646 28.7318C25.7566 28.7318 26.8153 28.5195 27.8108 28.1005C28.7733 27.6955 29.638 27.1153 30.3809 26.3762C31.1238 25.6371 31.707 24.7767 32.114 23.8192C32.5352 22.8287 32.7486 21.7756 32.7486 20.6891C32.7486 19.6025 32.5352 18.5494 32.114 17.559C31.707 16.6014 31.1238 15.7411 30.3809 15.002C29.6379 14.2627 28.7733 13.6827 27.8108 13.2777C26.8153 12.8587 25.7567 12.6463 24.6646 12.6463V12.6463Z" fill="black"/>
<path d="M44.4357 48.1861C43.5298 48.1861 42.7953 47.4554 42.7953 46.5541C42.7953 45.6528 42.4061 44.7405 41.6383 43.8522C40.7996 42.8818 39.5142 41.957 37.921 41.1772C36.229 40.3493 34.2457 39.6966 32.0265 39.2371C29.6988 38.7553 27.2219 38.511 24.6649 38.511C22.1078 38.511 19.631 38.7553 17.3033 39.2371C15.084 39.6964 13.1007 40.3492 11.4088 41.1772C9.8155 41.9568 8.53012 42.8818 7.69149 43.8522C6.9238 44.7405 6.53442 45.6495 6.53442 46.5541C6.53442 47.4587 5.79996 48.1861 4.89404 48.1861C3.98812 48.1861 3.25366 47.4554 3.25366 46.5541C3.25366 45.6528 3.43108 44.8145 3.78111 43.9774C4.1075 43.1968 4.58617 42.4388 5.20389 41.724C6.34477 40.4041 7.9453 39.2347 9.96067 38.2483C13.9157 36.313 19.1378 35.247 24.6649 35.247C30.192 35.247 35.414 36.313 39.3691 38.2483C41.3846 39.2347 42.985 40.4039 44.1259 41.724C44.7436 42.4388 45.2222 43.1968 45.5486 43.9774C45.8987 44.8145 46.0761 45.6814 46.0761 46.5541C46.0761 47.4268 45.3416 48.1861 44.4357 48.1861Z" fill="black"/>
</svg>
